<?xml version="1.0" encoding="UTF-8"?>
<svg width="150px" height="50px" viewBox="0 0 150 50" version="1.1" xmlns="http://www.w3.org/2000/svg" xmlns:xlink="http://www.w3.org/1999/xlink">
    <!-- Generator: Sketch 43 (38999) - http://www.bohemiancoding.com/sketch -->
    <title>sağ</title>
    <desc>Created with Sketch.</desc>
    <defs></defs>
    <g id="Page-1" stroke="none" stroke-width="1" fill="none" fill-rule="evenodd">
        <g id="NLBRBlock---sag">
            <g id="sağ">
                <path d="M16,40 L10.0017993,40 C4.47795805,40 0,35.5279241 0,30.0094932 L0,9.99050677 C0,4.47290224 4.46883267,0 10.0017993,0 L15,0 C15,5.5228475 19.4771525,10 25,10 C30.5228475,10 35,5.5228475 35,0 L139.998201,0 C145.522042,0 150,4.47207592 150,9.99050677 L150,30.0094932 C150,35.5270978 145.531167,40 139.998201,40 L36,40 C36,45.5228475 31.5228475,50 26,50 C20.4771525,50 16,45.5228475 16,40 Z" id="Combined-Shape" fill="#8E44AD"></path>
                <text id="sağa-dön" font-family="HelveticaNeue-Bold, Helvetica Neue" font-size="20" font-weight="bold" letter-spacing="0.800000012" fill="#FFFFFF">
                    <tspan x="50" y="26">sağa dö</tspan>
                    <tspan x="131.52" y="26">n</tspan>
                </text>
            </g>
        </g>
    </g>
</svg>